<svg width="560" height="70" viewBox="0 0 560 70" fill="none" xmlns="http://www.w3.org/2000/svg">
<path d="M554.83 35.2958V59.0563C549.56 63.2958 542.998 65.3662 535.044 65.3662C529.079 65.3662 523.71 64.0845 518.937 61.4225C514.165 58.7606 510.387 55.1127 507.603 50.4789C504.819 45.8451 503.526 40.7183 503.526 35C503.526 29.2817 504.819 24.1549 507.603 19.5211C510.287 14.8873 514.065 11.2394 518.838 8.57746C523.61 6.01408 529.079 4.6338 535.044 4.6338C539.419 4.6338 543.396 5.32394 546.975 6.60563C550.555 7.88732 553.836 9.95774 556.818 12.8169L560 9.46479C556.918 6.40845 553.239 4.04225 548.964 2.46479C544.688 0.887323 540.015 0 534.945 0C527.985 0 521.721 1.57746 516.153 4.53521C510.585 7.59154 506.31 11.7324 503.129 17.0563C499.947 22.3803 498.456 28.3944 498.456 35C498.456 41.7042 499.947 47.6197 503.129 52.9437C506.31 58.2676 510.585 62.507 516.153 65.4648C521.721 68.5211 527.886 70 534.845 70C539.618 70 544.191 69.3099 548.566 67.7324C552.941 66.2535 556.62 64.0845 559.702 61.1268V35.2958H554.83Z" fill="#B70000"/>
<path d="M441.239 0H436.168L404.153 69.0141H409.622L438.654 5.52113L467.786 69.0141H473.254L441.239 0Z" fill="#B70000"/>
<path d="M379.995 0H374.924V31.7465H328.393V0H323.323V69.0141H328.393V36.1831H374.924V69.0141H379.995V0Z" fill="#B70000"/>
<path d="M255.6 65.4648C261.068 68.5211 267.232 70 274.093 70C279.064 70 283.638 69.2113 287.913 67.5352C292.188 65.9577 295.867 63.493 298.85 60.338L295.668 57.0845C290.001 62.6056 282.842 65.3662 274.292 65.3662C268.426 65.3662 263.156 64.0845 258.384 61.4225C253.611 58.8592 249.833 55.2113 247.149 50.5775C244.365 45.9437 243.072 40.7183 243.072 35C243.072 29.2817 244.365 24.1549 247.149 19.5211C249.833 14.8873 253.611 11.2394 258.384 8.57747C263.156 6.01408 268.426 4.6338 274.292 4.6338C282.942 4.6338 290.1 7.39436 295.668 12.8169L298.85 9.56338C295.867 6.40845 292.188 4.04225 288.012 2.46479C283.737 0.887323 279.064 0 274.093 0C267.232 0 261.068 1.57746 255.6 4.53521C250.131 7.59154 245.856 11.7324 242.674 17.0563C239.493 22.3803 238.001 28.3944 238.001 35C238.001 41.7042 239.493 47.6197 242.674 52.9437C245.856 58.2676 250.131 62.507 255.6 65.4648Z" fill="#B70000"/>
<path d="M196.104 44.8592C201.274 43.3803 205.35 40.8169 208.134 37.0704C210.918 33.3239 212.41 28.7887 212.41 23.2676C212.41 16.0704 209.924 10.3521 204.953 6.21127C199.981 2.07043 193.121 0 184.372 0H159.416V4.53521H184.372C191.729 4.53521 197.396 6.21127 201.373 9.46479C205.251 12.7183 207.239 17.3521 207.239 23.2676C207.239 29.2817 205.251 33.9155 201.373 37.169C197.396 40.4225 191.729 42 184.372 42H159.416V69.0141H164.486V46.4366H184.372C186.36 46.4366 188.647 46.338 191.133 45.9437L207.737 69.0141H213.503L196.104 44.8592Z" fill="#B70000"/>
<path d="M85.8433 61.9155C90.7151 67.0422 97.5755 69.507 106.424 69.507C115.174 69.507 122.034 67.0422 127.005 61.9155C131.877 56.8873 134.363 49.493 134.363 39.7324V0H129.292V39.5352C129.292 48.0141 127.304 54.4225 123.426 58.5634C119.449 62.8028 113.881 64.8732 106.524 64.8732C99.0669 64.8732 93.3996 62.8028 89.522 58.5634C85.545 54.4225 83.6559 48.0141 83.6559 39.5352V0H78.5852V39.7324C78.5852 49.493 80.9714 56.8873 85.8433 61.9155Z" fill="#B70000"/>
<path d="M45.537 6.21127C40.5657 2.07043 33.7053 0 24.9558 0H0V4.53521H24.9558C32.3133 4.53521 37.9806 6.21127 41.9576 9.46479C45.8352 12.7183 47.8237 17.3521 47.8237 23.2676C47.8237 29.2817 45.8352 33.9155 41.9576 37.0704C37.9806 40.3239 32.3133 41.9014 24.9558 41.9014H0V69.0141H5.0707V46.4366H24.9558C33.7053 46.4366 40.5657 44.4648 45.537 40.3239C50.5082 36.1831 52.9939 30.5634 52.9939 23.2676C52.9939 16.0704 50.5082 10.3521 45.537 6.21127Z" fill="#B70000"/>
</svg>
