<svg width="20" height="21" viewBox="0 0 20 21" fill="none" xmlns="http://www.w3.org/2000/svg">
<path d="M11.8233 6.98472L7.6473 11.4484C7.57678 11.5212 7.52053 11.6083 7.48184 11.7046C7.44314 11.8008 7.42278 11.9044 7.42192 12.0092C7.42107 12.1139 7.43975 12.2178 7.47688 12.3148C7.514 12.4118 7.56882 12.4999 7.63815 12.574C7.70747 12.648 7.78991 12.7066 7.88064 12.7463C7.97138 12.786 8.0686 12.806 8.16664 12.805C8.26467 12.8041 8.36156 12.7824 8.45164 12.741C8.54171 12.6997 8.62319 12.6395 8.69129 12.5642L12.868 8.10125C13.2834 7.65728 13.5168 7.05512 13.5168 6.42725C13.5168 5.79938 13.2834 5.19723 12.868 4.75326C12.4526 4.30929 11.8892 4.05987 11.3017 4.05987C10.7142 4.05987 10.1507 4.30929 9.73529 4.75326L5.55857 9.21698C5.20866 9.58163 4.92998 10.0169 4.7387 10.4975C4.54742 10.9782 4.44735 11.4946 4.44428 12.0169C4.44122 12.5393 4.53523 13.057 4.72086 13.5402C4.90649 14.0233 5.18004 14.4623 5.52565 14.8316C5.87126 15.2009 6.28204 15.4932 6.73417 15.6915C7.18631 15.8898 7.67078 15.9902 8.1595 15.9869C8.64822 15.9836 9.13145 15.8765 9.58117 15.672C10.0309 15.4675 10.4381 15.1697 10.7793 14.7956L14.956 10.3327L16 11.4484L11.8233 15.9122C11.3433 16.4251 10.7736 16.832 10.1465 17.1096C9.5194 17.3872 8.8473 17.53 8.16856 17.53C7.48981 17.53 6.81771 17.3872 6.19064 17.1096C5.56356 16.832 4.99378 16.4251 4.51384 15.9122C4.03389 15.3992 3.65318 14.7903 3.39343 14.1201C3.13369 13.45 3 12.7317 3 12.0063C3 11.2809 3.13369 10.5626 3.39343 9.89248C3.65318 9.22231 4.03389 8.61338 4.51384 8.10046L8.69129 3.63752C9.38755 2.91885 10.3201 2.52119 11.288 2.53018C12.2559 2.53917 13.1818 2.95409 13.8663 3.68558C14.5508 4.41708 14.939 5.40661 14.9474 6.44106C14.9558 7.4755 14.5837 8.4721 13.9113 9.21619L9.73529 13.6815C9.52954 13.9013 9.2853 14.0757 9.01649 14.1946C8.74769 14.3136 8.4596 14.3748 8.16867 14.3748C7.87773 14.3747 7.58965 14.3135 7.32088 14.1944C7.0521 14.0754 6.80789 13.901 6.6022 13.6811C6.3965 13.4612 6.23334 13.2002 6.12203 12.9129C6.01073 12.6256 5.95346 12.3178 5.9535 12.0068C5.95353 11.6959 6.01087 11.388 6.12223 11.1008C6.2336 10.8135 6.39682 10.5525 6.60256 10.3327L10.7793 5.86899L11.8233 6.98472Z" fill="#98A0AD"/>
</svg>
