<svg width="37" height="36" viewBox="0 0 37 36" fill="none" xmlns="http://www.w3.org/2000/svg">
<g clip-path="url(#clip0_6_1843)">
<path d="M32.3837 9.75H4.63367V30.375H32.3837V9.75Z" stroke="#65676D" stroke-width="2.25" stroke-miterlimit="10"/>
<path d="M10.2587 4.5V13.5" stroke="#65676D" stroke-width="2.25" stroke-miterlimit="10"/>
<path d="M26.7587 4.5V13.5" stroke="#65676D" stroke-width="2.25" stroke-miterlimit="10"/>
<path d="M13.2587 15H7.25867V21H13.2587V15Z" fill="#65676D"/>
<path d="M20.0087 15H17.0087V18H20.0087V15Z" fill="#65676D"/>
<path d="M24.8837 15H21.8837V18H24.8837V15Z" fill="#65676D"/>
<path d="M29.7587 15H26.7587V18H29.7587V15Z" fill="#65676D"/>
<path d="M20.0087 19.5H17.0087V22.5H20.0087V19.5Z" fill="#65676D"/>
<path d="M24.8837 19.5H21.8837V22.5H24.8837V19.5Z" fill="#65676D"/>
<path d="M29.7587 19.5H26.7587V22.5H29.7587V19.5Z" fill="#65676D"/>
<path d="M20.0087 24H17.0087V27H20.0087V24Z" fill="#65676D"/>
<path d="M15.1337 24H12.1337V27H15.1337V24Z" fill="#65676D"/>
<path d="M10.2587 24H7.25867V27H10.2587V24Z" fill="#65676D"/>
<path d="M24.8837 24H21.8837V27H24.8837V24Z" fill="#65676D"/>
<path d="M29.7587 24H26.7587V27H29.7587V24Z" fill="#65676D"/>
</g>
<defs>
<clipPath id="clip0_6_1843">
<rect width="30" height="27" fill="white" transform="translate(3.50867 4.5)"/>
</clipPath>
</defs>
</svg>
