<svg width="37" height="36" viewBox="0 0 37 36" fill="none" xmlns="http://www.w3.org/2000/svg">
<path d="M32.3837 9.75H4.63367V30.375H32.3837V9.75Z" stroke="#65676D" stroke-width="2" stroke-miterlimit="10"/>
<path d="M10.2587 4.5V13.5" stroke="#65676D" stroke-width="2" stroke-miterlimit="10"/>
<path d="M26.7587 4.5V13.5" stroke="#65676D" stroke-width="2" stroke-miterlimit="10"/>
<path d="M8.25867 16H12.2587V20H8.25867V16Z" stroke="#65676D" stroke-width="2"/>
<path d="M18.0087 16H19.0087V17H18.0087V16Z" stroke="#65676D" stroke-width="2"/>
<path d="M22.8837 16H23.8837V17H22.8837V16Z" stroke="#65676D" stroke-width="2"/>
<path d="M27.7587 16H28.7587V17H27.7587V16Z" stroke="#65676D" stroke-width="2"/>
<path d="M18.0087 20.5H19.0087V21.5H18.0087V20.5Z" stroke="#65676D" stroke-width="2"/>
<path d="M22.8837 20.5H23.8837V21.5H22.8837V20.5Z" stroke="#65676D" stroke-width="2"/>
<path d="M27.7587 20.5H28.7587V21.5H27.7587V20.5Z" stroke="#65676D" stroke-width="2"/>
<path d="M18.0087 25H19.0087V26H18.0087V25Z" stroke="#65676D" stroke-width="2"/>
<path d="M13.1337 25H14.1337V26H13.1337V25Z" stroke="#65676D" stroke-width="2"/>
<path d="M8.25867 25H9.25867V26H8.25867V25Z" stroke="#65676D" stroke-width="2"/>
<path d="M22.8837 25H23.8837V26H22.8837V25Z" stroke="#65676D" stroke-width="2"/>
<path d="M27.7587 25H28.7587V26H27.7587V25Z" stroke="#65676D" stroke-width="2"/>
<clipPath>
<rect width="30" height="27" fill="white" transform="translate(3.50867 4.5)"/>
</clipPath>
</svg>
