<svg width="16" height="16" viewBox="0 0 16 16" fill="none" xmlns="http://www.w3.org/2000/svg">
<path fill-rule="evenodd" clip-rule="evenodd" d="M8.00001 2.66671C6.15906 2.66671 4.66668 4.15909 4.66668 6.00004C4.66668 7.84099 6.15906 9.33337 8.00001 9.33337C9.84096 9.33337 11.3333 7.84099 11.3333 6.00004C11.3333 4.15909 9.84096 2.66671 8.00001 2.66671ZM3.33334 6.00004C3.33334 3.42271 5.42268 1.33337 8.00001 1.33337C10.5773 1.33337 12.6667 3.42271 12.6667 6.00004C12.6667 8.57737 10.5773 10.6667 8.00001 10.6667C5.42268 10.6667 3.33334 8.57737 3.33334 6.00004Z" fill="#030235"/>
<path fill-rule="evenodd" clip-rule="evenodd" d="M8.0002 10.6667C6.88836 10.6667 5.79609 10.9593 4.83312 11.5151C3.87016 12.0708 3.0704 12.8702 2.5142 13.833C2.33002 14.1518 1.92226 14.2609 1.60345 14.0767C1.28464 13.8925 1.17551 13.4848 1.3597 13.166C2.03295 12.0006 3.00101 11.033 4.16663 10.3603C5.33225 9.68751 6.65439 9.33336 8.00022 9.33337C9.34604 9.33339 10.6682 9.68757 11.8338 10.3603C12.9994 11.0331 13.9674 12.0008 14.6407 13.1661C14.8248 13.4849 14.7157 13.8927 14.3969 14.0768C14.0781 14.261 13.6703 14.1519 13.4861 13.8331C12.93 12.8703 12.1302 12.0709 11.1673 11.5151C10.2043 10.9593 9.11204 10.6667 8.0002 10.6667Z" fill="#030235"/>
</svg>
