<svg width="20" height="20" viewBox="0 0 20 20" fill="none" xmlns="http://www.w3.org/2000/svg">
<path d="M0 10C0 4.47715 4.47715 0 10 0V0C15.5228 0 20 4.47715 20 10V10C20 15.5228 15.5228 20 10 20V20C4.47715 20 0 15.5228 0 10V10Z" fill="#030235"/>
<path fill-rule="evenodd" clip-rule="evenodd" d="M10.6667 5.42853C10.6667 5.00774 10.3682 4.66663 10 4.66663C9.63181 4.66663 9.33333 5.00774 9.33333 5.42853V9.33329H5.42857C5.00778 9.33329 4.66667 9.63177 4.66667 9.99996C4.66667 10.3681 5.00778 10.6666 5.42857 10.6666H9.33333V14.5714C9.33333 14.9922 9.63181 15.3333 10 15.3333C10.3682 15.3333 10.6667 14.9922 10.6667 14.5714V10.6666H14.5714C14.9922 10.6666 15.3333 10.3681 15.3333 9.99996C15.3333 9.63177 14.9922 9.33329 14.5714 9.33329H10.6667V5.42853Z" fill="white"/>
</svg>
